<svg xmlns="http://www.w3.org/2000/svg" xmlns:xlink="http://www.w3.org/1999/xlink" viewBox="0 0 1200 1160" width="1200" height="1160">
  <style>
    text { font-family: 'Patrick Hand', 'Comic Neue', 'Gaegu', cursive; fill: #1A1A1A; }
    .stroke { stroke: #1A1A1A; stroke-linecap: round; stroke-linejoin: round; }
  </style>
  <defs>
    <!-- kawaii whale mascot, facing right, centered at origin, ~120 wide -->
    <g id="whale">
      <path class="stroke" d="M -40 0 L -62 -14 L -55 2 L -64 14 Z" fill="#D9D9D9" stroke-width="4"/>
      <ellipse class="stroke" cx="0" cy="0" rx="46" ry="32" fill="#D9D9D9" stroke-width="4"/>
      <ellipse cx="4" cy="15" rx="32" ry="13" fill="#FFFFFF"/>
      <path class="stroke" d="M -6 8 q 14 2 18 14 q -18 4 -22 -8 z" fill="#D9D9D9" stroke-width="3.5"/>
      <circle cx="22" cy="-8" r="3.5" fill="#1A1A1A"/>
      <circle cx="30" cy="1" r="5" fill="#F0F0F0"/>
      <path class="stroke" d="M 32 -3 q 4 4 9 1" fill="none" stroke-width="3"/>
    </g>
    <!-- kawaii rabbit (second character), front-facing, centered at origin, ~56 wide -->
    <g id="rabbit">
      <ellipse class="stroke" cx="-11" cy="-42" rx="8" ry="21" transform="rotate(-12 -11 -42)" fill="#FFFFFF" stroke-width="3.5"/>
      <ellipse cx="-11" cy="-40" rx="3.5" ry="13" transform="rotate(-12 -11 -40)" fill="#F0F0F0"/>
      <ellipse class="stroke" cx="11" cy="-42" rx="8" ry="21" transform="rotate(12 11 -42)" fill="#FFFFFF" stroke-width="3.5"/>
      <ellipse cx="11" cy="-40" rx="3.5" ry="13" transform="rotate(12 11 -40)" fill="#F0F0F0"/>
      <ellipse class="stroke" cx="0" cy="0" rx="26" ry="28" fill="#FFFFFF" stroke-width="4"/>
      <circle cx="-8" cy="-6" r="3.2" fill="#1A1A1A"/>
      <circle cx="8" cy="-6" r="3.2" fill="#1A1A1A"/>
      <circle cx="-14" cy="3" r="4.5" fill="#F0F0F0"/>
      <circle cx="14" cy="3" r="4.5" fill="#F0F0F0"/>
      <path class="stroke" d="M -4 3 q 4 4 8 0" fill="none" stroke-width="3"/>
    </g>
    <!-- 4-point sparkle -->
    <path id="spark" d="M 0 -9 L 2.5 -2.5 L 9 0 L 2.5 2.5 L 0 9 L -2.5 2.5 L -9 0 L -2.5 -2.5 Z" fill="#1A1A1A"/>
  </defs>

  <!-- background -->
  <rect x="0" y="0" width="1200" height="1160" fill="#FFFFFF"/>

  <!-- ================= BAND 1 : HEADER (y 10-385) ================= -->
  <text x="45" y="100" font-size="62">Pour Over</text>
  <text x="45" y="165" font-size="62">Coffee</text>
  <line class="stroke" x1="45" y1="192" x2="150" y2="192" stroke-width="4"/>
  <text x="45" y="240" font-size="24">The slow brew.</text>
  <text x="45" y="275" font-size="24">You don't rush it.</text>
  <text x="45" y="310" font-size="24">The water does the work.</text>

  <!-- thought bubble -->
  <g>
    <circle class="stroke" cx="355" cy="150" r="42" fill="#FFFFFF" stroke-width="4"/>
    <circle class="stroke" cx="420" cy="120" r="46" fill="#FFFFFF" stroke-width="4"/>
    <circle class="stroke" cx="480" cy="150" r="40" fill="#FFFFFF" stroke-width="4"/>
    <circle class="stroke" cx="420" cy="185" r="48" fill="#FFFFFF" stroke-width="4"/>
    <ellipse cx="418" cy="155" rx="80" ry="52" fill="#FFFFFF"/>
    <!-- steaming coffee cup icon -->
    <path class="stroke" d="M 388 148 L 395 194 L 441 194 L 448 148 Z" fill="#F0F0F0" stroke-width="4"/>
    <path class="stroke" d="M 448 156 q 20 5 0 24" fill="none" stroke-width="4"/>
    <path class="stroke" d="M 404 126 q 4 -8 0 -14 M 419 128 q 4 -8 0 -14 M 434 126 q 4 -8 0 -14" fill="none" stroke-width="3"/>
    <circle class="stroke" cx="352" cy="250" r="9" fill="#FFFFFF" stroke-width="3.5"/>
    <circle class="stroke" cx="332" cy="278" r="6" fill="#FFFFFF" stroke-width="3"/>
  </g>
  <!-- thinking whale -->
  <use xlink:href="#whale" transform="translate(370,336) scale(1.0)"/>

  <!-- stack of 4 -->
  <g>
    <rect class="stroke" x="585" y="60" width="320" height="62" rx="12" fill="#2B2B2B" stroke-width="4"/>
    <circle class="stroke" cx="622" cy="91" r="16" fill="#FFFFFF" stroke-width="3.5"/>
    <text x="622" y="98" font-size="20" text-anchor="middle">4</text>
    <text x="652" y="99" font-size="26" style="fill:#FFFFFF">Pour Over</text>

    <rect class="stroke" x="585" y="136" width="320" height="62" rx="12" fill="#F0F0F0" stroke-width="4"/>
    <circle class="stroke" cx="622" cy="167" r="16" fill="#FFFFFF" stroke-width="3.5"/>
    <text x="622" y="174" font-size="20" text-anchor="middle">3</text>
    <text x="652" y="175" font-size="26">French Press</text>

    <rect class="stroke" x="585" y="212" width="320" height="62" rx="12" fill="#FFFFFF" stroke-width="4"/>
    <circle class="stroke" cx="622" cy="243" r="16" fill="#FFFFFF" stroke-width="3.5"/>
    <text x="622" y="250" font-size="20" text-anchor="middle">2</text>
    <text x="652" y="251" font-size="26">Drip Machine</text>

    <rect class="stroke" x="585" y="288" width="320" height="62" rx="12" fill="#FFFFFF" stroke-width="4"/>
    <circle class="stroke" cx="622" cy="319" r="16" fill="#FFFFFF" stroke-width="3.5"/>
    <text x="622" y="326" font-size="20" text-anchor="middle">1</text>
    <text x="652" y="327" font-size="26">Instant</text>
  </g>

  <!-- ladder whale -->
  <g>
    <line class="stroke" x1="1005" y1="372" x2="1068" y2="128" stroke-width="5"/>
    <line class="stroke" x1="1055" y1="372" x2="1118" y2="128" stroke-width="5"/>
    <line class="stroke" x1="1018" y1="330" x2="1068" y2="330" stroke-width="4"/>
    <line class="stroke" x1="1030" y1="283" x2="1080" y2="283" stroke-width="4"/>
    <line class="stroke" x1="1042" y1="236" x2="1092" y2="236" stroke-width="4"/>
    <line class="stroke" x1="1054" y1="189" x2="1104" y2="189" stroke-width="4"/>
    <use xlink:href="#whale" transform="translate(1075,160) scale(-0.85,0.85)"/>
    <use xlink:href="#spark" transform="translate(1128,70)"/>
    <use xlink:href="#spark" transform="translate(1155,110) scale(0.7)"/>
    <use xlink:href="#spark" transform="translate(1100,45) scale(0.6)"/>
  </g>

  <!-- band line 1 -->
  <line class="stroke" x1="10" y1="385" x2="1190" y2="385" stroke-width="5"/>

  <!-- ================= BAND 2 : 5 STEPS (y 385-660) ================= -->
  <g>
    <path class="stroke" d="M 439 398 L 761 398 L 770 406.5 L 763 415 L 770 423.5 L 761 432 L 439 432 L 430 423.5 L 437 415 L 430 406.5 Z" fill="#FFFFFF" stroke-width="3"/>
    <text x="600" y="423" font-size="22" text-anchor="middle" letter-spacing="1">ONE CUP = 5 MOVES</text>
  </g>
  <line class="stroke" x1="246" y1="440" x2="246" y2="650" stroke-width="3"/>
  <line class="stroke" x1="482" y1="440" x2="482" y2="650" stroke-width="3"/>
  <line class="stroke" x1="718" y1="440" x2="718" y2="650" stroke-width="3"/>
  <line class="stroke" x1="954" y1="440" x2="954" y2="650" stroke-width="3"/>

  <!-- step headers -->
  <g font-size="24">
    <circle class="stroke" cx="72" cy="466" r="14" fill="#FFFFFF" stroke-width="3"/>
    <text x="72" y="473" font-size="18" text-anchor="middle">1</text>
    <text x="96" y="474">Grind</text>
    <circle class="stroke" cx="300" cy="466" r="14" fill="#FFFFFF" stroke-width="3"/>
    <text x="300" y="473" font-size="18" text-anchor="middle">2</text>
    <text x="324" y="474">Bloom</text>
    <circle class="stroke" cx="540" cy="466" r="14" fill="#FFFFFF" stroke-width="3"/>
    <text x="540" y="473" font-size="18" text-anchor="middle">3</text>
    <text x="564" y="474">Pour</text>
    <circle class="stroke" cx="756" cy="466" r="14" fill="#FFFFFF" stroke-width="3"/>
    <text x="756" y="473" font-size="18" text-anchor="middle">4</text>
    <text x="780" y="474">Drawdown</text>
    <circle class="stroke" cx="1010" cy="466" r="14" fill="#FFFFFF" stroke-width="3"/>
    <text x="1010" y="473" font-size="18" text-anchor="middle">5</text>
    <text x="1034" y="474">Taste</text>
  </g>

  <!-- step illustrations: whale + LARGE prop -->
  <!-- 1 grind: whale + big hand grinder -->
  <use xlink:href="#whale" transform="translate(88,602) scale(0.62)"/>
  <rect class="stroke" x="148" y="528" width="64" height="80" rx="8" fill="#F0F0F0" stroke-width="4"/>
  <rect class="stroke" x="156" y="586" width="48" height="16" rx="3" fill="#D9D9D9" stroke-width="3"/>
  <path class="stroke" d="M 180 528 L 180 502 L 212 492" fill="none" stroke-width="4"/>
  <circle class="stroke" cx="216" cy="491" r="8" fill="#D9D9D9" stroke-width="3.5"/>
  <!-- 2 bloom: whale watching a big mound puff up -->
  <use xlink:href="#whale" transform="translate(320,602) scale(0.62)"/>
  <path class="stroke" d="M 372 628 q 36 -40 72 0 Z" fill="#2B2B2B" stroke-width="4"/>
  <circle class="stroke" cx="386" cy="560" r="11" fill="#FFFFFF" stroke-width="3.5"/>
  <circle class="stroke" cx="410" cy="542" r="15" fill="#FFFFFF" stroke-width="3.5"/>
  <circle class="stroke" cx="436" cy="558" r="10" fill="#FFFFFF" stroke-width="3.5"/>
  <!-- 3 pour: whale + big gooseneck kettle over a dripper -->
  <use xlink:href="#whale" transform="translate(548,602) scale(0.62)"/>
  <ellipse class="stroke" cx="622" cy="540" rx="28" ry="21" fill="#D9D9D9" stroke-width="4"/>
  <path class="stroke" d="M 612 519 q 12 -8 22 0" fill="none" stroke-width="3.5"/>
  <circle class="stroke" cx="623" cy="513" r="4" fill="#1A1A1A" stroke-width="2"/>
  <path class="stroke" d="M 649 534 q 28 4 30 26" fill="none" stroke-width="4"/>
  <path class="stroke" d="M 679 566 q -2 12 -1 20" fill="none" stroke-width="3"/>
  <path class="stroke" d="M 652 596 L 706 596 L 679 634 Z" fill="#F0F0F0" stroke-width="4"/>
  <!-- 4 drawdown: whale waiting by a big dripper + carafe -->
  <use xlink:href="#whale" transform="translate(786,602) scale(0.62)"/>
  <path class="stroke" d="M 844 508 L 908 508 L 876 554 Z" fill="#F0F0F0" stroke-width="4"/>
  <path class="stroke" d="M 876 562 l 0 10 M 868 578 l 0 10 M 884 578 l 0 10" stroke-width="3.5"/>
  <path class="stroke" d="M 850 598 L 902 598 L 898 640 L 854 640 Z" fill="#FFFFFF" stroke-width="4"/>
  <rect x="858" y="622" width="36" height="14" rx="4" fill="#D9D9D9"/>
  <!-- 5 taste: whale sipping from a big cup with sparkles -->
  <use xlink:href="#whale" transform="translate(1030,602) scale(0.62)"/>
  <path class="stroke" d="M 1080 548 L 1088 606 L 1136 606 L 1144 548 Z" fill="#F0F0F0" stroke-width="4"/>
  <path class="stroke" d="M 1144 556 q 18 6 0 24" fill="none" stroke-width="3.5"/>
  <path class="stroke" d="M 1098 534 q 4 -8 0 -14 M 1112 536 q 4 -8 0 -14" fill="none" stroke-width="3"/>
  <use xlink:href="#spark" transform="translate(1156,520) scale(0.7)"/>

  <!-- arrows between steps -->
  <g>
    <circle cx="246" cy="560" r="15" fill="#FFFFFF"/>
    <path class="stroke" d="M 236 560 L 254 560 M 248 553 L 256 560 L 248 567" fill="none" stroke-width="3.5"/>
    <circle cx="482" cy="560" r="15" fill="#FFFFFF"/>
    <path class="stroke" d="M 472 560 L 490 560 M 484 553 L 492 560 L 484 567" fill="none" stroke-width="3.5"/>
    <circle cx="718" cy="560" r="15" fill="#FFFFFF"/>
    <path class="stroke" d="M 708 560 L 726 560 M 720 553 L 728 560 L 720 567" fill="none" stroke-width="3.5"/>
    <circle cx="954" cy="560" r="15" fill="#FFFFFF"/>
    <path class="stroke" d="M 944 560 L 962 560 M 956 553 L 964 560 L 956 567" fill="none" stroke-width="3.5"/>
  </g>

  <!-- band line 2 -->
  <line class="stroke" x1="10" y1="660" x2="1190" y2="660" stroke-width="5"/>

  <!-- ================= BAND 3 : 6 TOOLS + COMPARISON (y 660-920) ================= -->
  <g>
    <path class="stroke" d="M 274 672 L 596 672 L 605 680.5 L 598 689 L 605 697.5 L 596 706 L 274 706 L 265 697.5 L 272 689 L 265 680.5 Z" fill="#FFFFFF" stroke-width="3"/>
    <text x="435" y="697" font-size="22" text-anchor="middle" letter-spacing="1">6 TOOLS THAT MAKE IT</text>
  </g>
  <g stroke="#1A1A1A" stroke-width="2.5" stroke-dasharray="6 8">
    <line x1="152" y1="720" x2="152" y2="905"/>
    <line x1="293" y1="720" x2="293" y2="905"/>
    <line x1="435" y1="720" x2="435" y2="905"/>
    <line x1="576" y1="720" x2="576" y2="905"/>
    <line x1="718" y1="720" x2="718" y2="905"/>
  </g>

  <!-- tools: small whale left, LARGE prop right -->
  <!-- beans -->
  <use xlink:href="#whale" transform="translate(52,808) scale(0.4)"/>
  <ellipse class="stroke" cx="103" cy="768" rx="22" ry="15" transform="rotate(-25 103 768)" fill="#D9D9D9" stroke-width="3.5"/>
  <path class="stroke" d="M 87 780 q 16 -16 32 -24" fill="none" stroke-width="3"/>
  <ellipse class="stroke" cx="115" cy="806" rx="22" ry="15" transform="rotate(-25 115 806)" fill="#D9D9D9" stroke-width="3.5"/>
  <path class="stroke" d="M 99 818 q 16 -16 32 -24" fill="none" stroke-width="3"/>
  <text x="81" y="885" font-size="20" text-anchor="middle">Beans</text>
  <!-- grinder -->
  <use xlink:href="#whale" transform="translate(192,808) scale(0.4)"/>
  <rect class="stroke" x="228" y="752" width="46" height="60" rx="6" fill="#F0F0F0" stroke-width="3.5"/>
  <rect class="stroke" x="234" y="794" width="34" height="12" rx="3" fill="#D9D9D9" stroke-width="2.5"/>
  <path class="stroke" d="M 251 752 L 251 734 L 274 726" fill="none" stroke-width="3.5"/>
  <circle class="stroke" cx="277" cy="725" r="6.5" fill="#D9D9D9" stroke-width="3"/>
  <text x="222" y="885" font-size="20" text-anchor="middle">Grinder</text>
  <!-- kettle -->
  <use xlink:href="#whale" transform="translate(332,808) scale(0.4)"/>
  <ellipse class="stroke" cx="393" cy="784" rx="30" ry="23" fill="#D9D9D9" stroke-width="3.5"/>
  <path class="stroke" d="M 382 762 q 12 -9 22 0" fill="none" stroke-width="3"/>
  <circle class="stroke" cx="393" cy="756" r="3.5" fill="#1A1A1A" stroke-width="2"/>
  <path class="stroke" d="M 420 776 q 22 4 16 26" fill="none" stroke-width="3.5"/>
  <text x="364" y="885" font-size="20" text-anchor="middle">Kettle</text>
  <!-- filter -->
  <use xlink:href="#whale" transform="translate(474,808) scale(0.4)"/>
  <path class="stroke" d="M 500 750 L 564 750 L 532 796 Z" fill="#F0F0F0" stroke-width="3.5"/>
  <path class="stroke" d="M 514 758 L 528 778 M 534 758 L 540 768" fill="none" stroke-width="2.5"/>
  <text x="505" y="885" font-size="20" text-anchor="middle">Filter</text>
  <!-- scale -->
  <use xlink:href="#whale" transform="translate(615,808) scale(0.4)"/>
  <rect class="stroke" x="644" y="772" width="62" height="30" rx="6" fill="#F0F0F0" stroke-width="3.5"/>
  <rect x="654" y="780" width="22" height="12" fill="#2B2B2B"/>
  <line class="stroke" x1="650" y1="766" x2="700" y2="766" stroke-width="3.5"/>
  <text x="647" y="885" font-size="20" text-anchor="middle">Scale</text>
  <!-- timer -->
  <use xlink:href="#whale" transform="translate(756,808) scale(0.4)"/>
  <circle class="stroke" cx="815" cy="782" r="26" fill="#F0F0F0" stroke-width="3.5"/>
  <rect class="stroke" x="809" y="748" width="12" height="8" rx="2" fill="#D9D9D9" stroke-width="2.5"/>
  <path class="stroke" d="M 815 782 L 815 764 M 815 782 L 829 789" fill="none" stroke-width="3"/>
  <text x="788" y="885" font-size="20" text-anchor="middle">Timer</text>

  <!-- comparison inset panel -->
  <g>
    <rect class="stroke" x="870" y="672" width="310" height="238" rx="10" fill="#FFFFFF" stroke-width="5"/>
    <rect class="stroke" x="895" y="660" width="260" height="34" rx="6" fill="#FFFFFF" stroke-width="3.5"/>
    <text x="1025" y="684" font-size="21" text-anchor="middle" letter-spacing="1">FRESH &#8800; STALE</text>
    <line class="stroke" x1="1025" y1="706" x2="1025" y2="898" stroke-width="3"/>
    <text x="947" y="732" font-size="18" text-anchor="middle">Months old?</text>
    <text x="1103" y="732" font-size="18" text-anchor="middle">Fresh roast!</text>
    <!-- droopy whale + big dusty bag -->
    <use xlink:href="#whale" transform="translate(928,792) scale(0.38)"/>
    <path class="stroke" d="M 958 754 q 6 8 2 14" fill="none" stroke-width="2.5"/>
    <rect class="stroke" x="962" y="748" width="40" height="54" rx="5" fill="#D9D9D9" stroke-width="3.5"/>
    <path class="stroke" d="M 962 762 L 1002 762" stroke-width="2.5"/>
    <path class="stroke" d="M 902 838 L 938 866 M 938 838 L 902 866" fill="none" stroke-width="6"/>
    <!-- happy whale + big shiny bag -->
    <use xlink:href="#whale" transform="translate(1080,792) scale(0.38)"/>
    <rect class="stroke" x="1114" y="748" width="40" height="54" rx="5" fill="#F0F0F0" stroke-width="3.5"/>
    <path class="stroke" d="M 1114 762 L 1154 762" stroke-width="2.5"/>
    <use xlink:href="#spark" transform="translate(1160,738) scale(0.6)"/>
    <path class="stroke" d="M 1078 852 L 1092 866 L 1120 834" fill="none" stroke-width="6"/>
  </g>

  <!-- band line 3 -->
  <line class="stroke" x1="10" y1="920" x2="1190" y2="920" stroke-width="5"/>

  <!-- ================= BAND 4 : BOTTOM (y 920-1150) ================= -->
  <line class="stroke" x1="490" y1="920" x2="490" y2="1150" stroke-width="4"/>
  <line class="stroke" x1="745" y1="920" x2="745" y2="1150" stroke-width="4"/>

  <!-- left: brews in practice -->
  <g>
    <path class="stroke" d="M 119 932 L 381 932 L 390 939.5 L 383 947 L 390 954.5 L 381 962 L 119 962 L 110 954.5 L 117 947 L 110 939.5 Z" fill="#FFFFFF" stroke-width="3"/>
    <text x="250" y="954" font-size="19" text-anchor="middle" letter-spacing="1">BREWS IN PRACTICE</text>
  </g>
  <g stroke="#1A1A1A" stroke-width="2.5" stroke-dasharray="6 8">
    <line x1="170" y1="975" x2="170" y2="1140"/>
    <line x1="330" y1="975" x2="330" y2="1140"/>
  </g>
  <!-- morning v60: big sun + whale -->
  <text x="90" y="992" font-size="18" text-anchor="middle">Morning V60</text>
  <circle class="stroke" cx="58" cy="1040" r="18" fill="#F0F0F0" stroke-width="3.5"/>
  <path class="stroke" d="M 58 1014 l 0 -9 M 78 1022 l 7 -7 M 38 1022 l -7 -7 M 84 1040 l 9 0 M 32 1040 l -9 0" stroke-width="3"/>
  <use xlink:href="#whale" transform="translate(112,1092) scale(0.46)"/>
  <!-- camp brew: big campfire + whale -->
  <text x="250" y="992" font-size="18" text-anchor="middle">Camp Brew</text>
  <path class="stroke" d="M 206 1076 q 12 -34 19 -10 q 9 -22 15 3 q -3 18 -16 18 q -14 0 -18 -11 Z" fill="#D9D9D9" stroke-width="3.5"/>
  <line class="stroke" x1="194" y1="1090" x2="248" y2="1090" stroke-width="4"/>
  <line class="stroke" x1="200" y1="1098" x2="242" y2="1082" stroke-width="4"/>
  <use xlink:href="#whale" transform="translate(286,1092) scale(0.46)"/>
  <!-- cafe: whale barista hands a cup to a rabbit customer -->
  <text x="410" y="992" font-size="18" text-anchor="middle">Cafe</text>
  <text x="410" y="1014" font-size="18" text-anchor="middle">&#62;300 cups/day</text>
  <use xlink:href="#rabbit" transform="translate(362,1100) scale(0.52)"/>
  <rect class="stroke" x="392" y="1096" width="58" height="32" rx="4" fill="#F0F0F0" stroke-width="3.5"/>
  <path class="stroke" d="M 410 1072 L 413 1090 L 429 1090 L 432 1072 Z" fill="#FFFFFF" stroke-width="3"/>
  <use xlink:href="#whale" transform="translate(462,1082) scale(-0.42,0.42)"/>

  <!-- middle: 4 silent mistakes -->
  <g>
    <path class="stroke" d="M 517 932 L 709 932 L 718 939.5 L 711 947 L 718 954.5 L 709 962 L 517 962 L 508 954.5 L 515 947 L 508 939.5 Z" fill="#FFFFFF" stroke-width="3"/>
    <text x="613" y="954" font-size="18" text-anchor="middle" letter-spacing="1">4 SILENT MISTAKES</text>
  </g>
  <g font-size="19">
    <line class="stroke" x1="527" y1="990" x2="527" y2="1006" stroke-width="4"/>
    <circle class="stroke" cx="527" cy="1011" r="6.5" fill="#2B2B2B" stroke-width="2.5"/>
    <text x="552" y="1012">Water too hot</text>
    <circle cx="521" cy="1049" r="3.5" fill="#1A1A1A"/>
    <circle cx="531" cy="1043" r="3.5" fill="#1A1A1A"/>
    <circle cx="531" cy="1054" r="3.5" fill="#1A1A1A"/>
    <text x="552" y="1053">Grind too fine</text>
    <path class="stroke" d="M 514 1094 q 7 -10 14 0 q 7 10 14 0" fill="none" stroke-width="3.5"/>
    <text x="552" y="1096">Uneven pour</text>
    <path class="stroke" d="M 514 1124 L 542 1124 L 528 1142 Z" fill="#D9D9D9" stroke-width="3"/>
    <text x="552" y="1137">Dirty filter</text>
  </g>

  <!-- right: same beans, different cup -->
  <g>
    <path class="stroke" d="M 787 932 L 1149 932 L 1158 939.5 L 1151 947 L 1158 954.5 L 1149 962 L 787 962 L 778 954.5 L 785 947 L 778 939.5 Z" fill="#FFFFFF" stroke-width="3"/>
    <text x="968" y="954" font-size="18" text-anchor="middle" letter-spacing="1">SAME BEANS, DIFFERENT CUP</text>
  </g>
  <line x1="967" y1="975" x2="967" y2="1140" stroke="#1A1A1A" stroke-width="2.5" stroke-dasharray="6 8"/>
  <text x="856" y="992" font-size="18" text-anchor="middle">Barista A</text>
  <text x="856" y="1014" font-size="18" text-anchor="middle">takes care</text>
  <use xlink:href="#whale" transform="translate(826,1092) scale(0.46)"/>
  <path class="stroke" d="M 878 1038 L 918 1038 L 912 1070 Q 898 1082 884 1070 Z" fill="#F0F0F0" stroke-width="3.5"/>
  <path class="stroke" d="M 878 1044 q -12 4 0 14 M 918 1044 q 12 4 0 14" fill="none" stroke-width="3"/>
  <path class="stroke" d="M 890 1082 L 906 1082 M 886 1090 L 910 1090" stroke-width="3.5"/>
  <use xlink:href="#spark" transform="translate(928,1018) scale(0.6)"/>
  <text x="1078" y="992" font-size="18" text-anchor="middle">Barista B</text>
  <text x="1078" y="1014" font-size="18" text-anchor="middle">rushes</text>
  <use xlink:href="#whale" transform="translate(1046,1092) scale(0.46)"/>
  <path class="stroke" d="M 1084 1044 q 6 8 2 14" fill="none" stroke-width="2.5"/>
  <path class="stroke" d="M 1096 1036 L 1156 1036 L 1126 1078 Z" fill="#F0F0F0" stroke-width="3.5"/>
  <path class="stroke" d="M 1108 1086 l 0 10 M 1126 1090 l 0 10 M 1144 1086 l 0 10" stroke-width="3"/>

  <!-- outer frame -->
  <rect x="10" y="10" width="1180" height="1140" rx="24" fill="none" stroke="#1A1A1A" stroke-width="7"/>
</svg>
